<?xml version="1.0" standalone="no"?><!DOCTYPE svg PUBLIC "-//W3C//DTD SVG 1.1//EN" "http://www.w3.org/Graphics/SVG/1.1/DTD/svg11.dtd"><svg t="1574059736641" class="icon" viewBox="0 0 1343 1024" version="1.1" xmlns="http://www.w3.org/2000/svg" p-id="2118" xmlns:xlink="http://www.w3.org/1999/xlink" width="262.3046875" height="200"><defs><style type="text/css"></style></defs><path d="M823.90908 22.755556C591.32796 22.755556 396.327367 183.158602 343.319461 399.312919 338.590015 399.065611 333.860591 398.940683 329.008765 398.940683 159.891319 398.940683 22.755556 536.076447 22.755556 705.191344 22.755556 789.811268 57.100698 866.219031 112.482236 921.592946 167.856151 977.094337 244.511243 1011.189601 329.008765 1011.189601 413.628689 1011.189601 490.283782 976.469697 545.660245 921.095782 593.693969 873.062059 620.696348 808.72646 628.413872 737.295406L517.53604 728.583555C492.397363 725.473098 484.310153 706.435527 499.615175 686.151225L687.520336 453.692484C702.702979 433.408182 723.359516 435.899096 733.313001 459.293878L839.836194 719.621848C849.789679 743.019179 837.222878 759.568361 812.084224 756.460453L729.58043 748.867857C720.246488 835.106748 681.421778 911.262128 627.164592 971.617872 687.517787 997.750875 753.969539 1012.308855 823.906532 1012.308855 1097.176087 1012.308855 1318.684467 790.805595 1318.684467 517.530943 1318.687016 244.263936 1097.181184 22.755556 823.90908 22.755556L823.90908 22.755556 823.90908 22.755556Z" p-id="2119"></path></svg>